<?xml version="1.0" encoding="UTF-8"?><svg id="Warstwa_2" xmlns="http://www.w3.org/2000/svg" viewBox="0 0 59.52 76"><defs><style>.cls-1{fill:#fff;}.cls-2{fill:#4bc8e6;}</style></defs><g id="Warstwa_1-2"><path class="cls-2" d="m59.52,29.5c0,18.79-24.31,41.92-28.98,46.2-.44.4-1.11.4-1.55,0C24.31,71.43,0,48.29,0,29.5.14,13.07,13.58-.14,30.01,0c16.24.14,29.36,13.27,29.5,29.5Z"/><path class="cls-1" d="m29.79,10.36c0,10.17-8.24,18.42-18.41,18.42,0-10.17,8.24-18.42,18.41-18.42Z"/><path class="cls-1" d="m48.21,28.77c-10.17,0-18.42-8.25-18.42-18.42,10.18,0,18.42,8.25,18.42,18.42Z"/><path class="cls-1" d="m29.79,47.18c-10.15,0-18.38-8.22-18.41-18.37,10.15,0,18.38,8.22,18.41,18.37Z"/><path class="cls-1" d="m48.21,28.82c-.02,10.15-8.26,18.37-18.42,18.37.02-10.15,8.27-18.37,18.42-18.37Z"/></g></svg>