<?xml version="1.0" encoding="utf-8"?>
<!-- Generator: Adobe Illustrator 27.9.0, SVG Export Plug-In . SVG Version: 6.00 Build 0)  -->
<svg version="1.1" id="Warstwa_2_00000160902738264763583480000001641791950167416983_"
	 xmlns="http://www.w3.org/2000/svg" xmlns:xlink="http://www.w3.org/1999/xlink" x="0px" y="0px" viewBox="0 0 59.5 76"
	 style="enable-background:new 0 0 59.5 76;" xml:space="preserve">
<style type="text/css">
	.st0{fill:#4BC8E6;}
	.st1{fill:#FFFFFF;}
</style>
<g id="Warstwa_1-2">
	<path class="st0" d="M59.5,29.5c0,18.8-24.3,41.9-29,46.2c-0.4,0.4-1.1,0.4-1.5,0C24.3,71.4,0,48.3,0,29.5C0.1,13.1,13.6-0.1,30,0
		C46.2,0.1,59.4,13.3,59.5,29.5L59.5,29.5z"/>
	<path class="st1" d="M29.8,10.4c-10.2,0-18.4,8.2-18.4,18.4s8.2,18.4,18.4,18.4s18.4-8.2,18.4-18.4S39.9,10.4,29.8,10.4z
		 M43.5,29.3C43.5,29.4,43.5,29.4,43.5,29.3c-6.4,1.7-11.5,6.7-13.2,13.1c0,0,0,0,0,0.1c0,0,0,0.1-0.1,0.1c-0.1,0.2-0.3,0.3-0.5,0.3
		c-0.2,0-0.4-0.1-0.5-0.3c0,0-0.1-0.1-0.1-0.1c0,0,0,0,0,0c-1.7-6.4-6.7-11.4-13.1-13.1c0,0-0.1,0-0.1,0c-0.1,0-0.1,0-0.2-0.1
		c-0.2-0.1-0.3-0.3-0.3-0.5c0-0.2,0.1-0.4,0.3-0.5c0,0,0.1,0,0.1-0.1c0,0,0,0,0.1,0c6.4-1.7,11.4-6.7,13.1-13.1c0-0.1,0-0.1,0.1-0.2
		c0.1-0.2,0.3-0.3,0.5-0.3c0.2,0,0.4,0.1,0.5,0.3c0,0,0.1,0.1,0.1,0.2v0c1.7,6.4,6.7,11.4,13.1,13.1c0,0,0.1,0,0.1,0c0,0,0,0,0,0
		c0,0,0.1,0,0.1,0.1c0.2,0.1,0.3,0.3,0.3,0.5s-0.1,0.4-0.3,0.5C43.6,29.3,43.6,29.3,43.5,29.3z"/>
</g>
</svg>
