<?xml version="1.0" encoding="utf-8"?>
<!-- Generator: Adobe Illustrator 27.9.0, SVG Export Plug-In . SVG Version: 6.00 Build 0)  -->
<svg version="1.1" id="Warstwa_2_00000004531934462645223350000008616785540691418558_"
	 xmlns="http://www.w3.org/2000/svg" xmlns:xlink="http://www.w3.org/1999/xlink" x="0px" y="0px" viewBox="0 0 379.8 152.5"
	 style="enable-background:new 0 0 379.8 152.5;" xml:space="preserve">
<style type="text/css">
	.st0{fill:none;}
	.st1{fill:#4BC8E6;}
	.st2{fill:#141414;}
</style>
<g id="Warstwa_1-2">
	<rect y="0" class="st0" width="379.8" height="152.5"/>
	<g>
		<g>
			<path class="st1" d="M343.3,27.9H36.5c-4.7,0-8.6,3.8-8.6,8.6v62.3c0,4.8,3.9,8.6,8.6,8.6h307.7c4.4-0.5,7.7-4.1,7.7-8.6V36.5
				C351.9,31.7,348.1,27.9,343.3,27.9z M74.7,83.4c-1.3,1.8-3.1,3.2-5.4,4.2c-2.3,1-5,1.5-8.1,1.5c-2.9,0-5.6-0.3-8-0.9
				c-2.3-0.6-4.4-1.2-6.1-2c-0.5-0.2-1-0.6-1.4-1.1c-0.4-0.5-0.6-1.1-0.6-1.8c0-0.8,0.3-1.5,0.8-2.1c0.5-0.6,1.3-0.9,2.2-0.9
				c0.5,0,0.9,0.1,1.3,0.3c1.3,0.6,2.9,1.1,4.8,1.6c1.9,0.5,4,0.7,6.5,0.7c1.9,0,3.6-0.2,5.1-0.6c1.4-0.4,2.5-1,3.4-1.9
				c0.8-0.9,1.2-2.1,1.2-3.6c0-1.1-0.4-1.9-1.1-2.6c-0.8-0.7-2-1.3-3.4-1.8c-1.5-0.5-3.1-1-4.8-1.4c-1.8-0.4-3.6-0.9-5.3-1.4
				c-1.8-0.5-3.5-1.3-5-2.1c-1.5-0.9-2.8-2.1-3.7-3.5c-1-1.4-1.4-3.3-1.4-5.4c0-2.3,0.6-4.4,1.8-6.3c1.2-1.9,3-3.4,5.3-4.6
				c2.3-1.1,5.2-1.7,8.5-1.7c2.3,0,4.5,0.2,6.5,0.5c2,0.4,3.8,0.8,5.3,1.4c0.5,0.2,1,0.5,1.4,0.9c0.4,0.5,0.7,1.1,0.7,2
				c0,0.7-0.2,1.4-0.7,2c-0.5,0.7-1.3,1-2.2,1c-0.2,0-0.5,0-0.7-0.1c-0.1-0.1-0.3-0.1-0.4-0.1c-1.3-0.5-2.8-0.8-4.3-1.1
				c-1.5-0.3-3.2-0.4-4.9-0.4c-2.8,0-5.2,0.5-7.1,1.6c-1.8,1-2.7,2.5-2.7,4.4c0,1.3,0.4,2.3,1.2,3c0.8,0.8,2,1.4,3.3,1.9
				c1.5,0.5,3.1,1,4.8,1.4c1.7,0.4,3.5,0.9,5.3,1.4c1.8,0.5,3.5,1.2,5,2.1c1.6,0.9,2.8,2.1,3.8,3.5c1,1.5,1.4,3.4,1.4,5.7
				C76.7,79.5,76,81.6,74.7,83.4z M103.3,90.1c-12.5,0-22.5-10.1-22.5-22.5S90.8,45,103.3,45s22.5,10.1,22.5,22.5
				S115.7,90.1,103.3,90.1z M206.5,49.6c0,0.2-0.1,0.6-0.2,1.1l-11.4,35.1c-0.4,1-0.9,1.8-1.6,2.3c-0.7,0.5-1.5,0.7-2.4,0.7
				c-0.9,0-1.7-0.3-2.5-0.9c-0.7-0.6-1.2-1.3-1.5-2.1l-8.8-28l-8.8,28c-0.3,0.8-0.8,1.6-1.5,2.1c-1.4,1.1-3.4,1.2-4.9,0.1
				c-0.7-0.5-1.3-1.3-1.6-2.3l-11.4-35.1c-0.1-0.5-0.2-0.9-0.2-1.2c0-0.9,0.2-1.6,0.9-2.3c0.6-0.6,1.4-0.9,2.3-0.9
				c0.8,0,1.5,0.2,2.1,0.7c0.6,0.5,0.9,1.1,1.1,1.8l9.2,30.3l9.3-30.2c0.2-0.8,0.7-1.4,1.4-1.9c1.3-1,3.1-1,4.5,0
				c0.7,0.5,1.1,1.1,1.4,1.9l9.3,30.2l9.2-30.3c0.2-0.7,0.6-1.3,1.2-1.8c0.6-0.5,1.2-0.7,2-0.7c0.9,0,1.7,0.3,2.3,0.9
				C206.3,47.9,206.6,48.7,206.5,49.6z M244.4,85.6c0,0.9-0.3,1.7-1,2.3c-0.6,0.6-1.4,0.9-2.3,0.9c-0.9,0-1.7-0.3-2.3-0.9
				c-0.6-0.6-0.9-1.4-0.9-2.3V70.7H217v14.9c0,0.9-0.3,1.7-1,2.3c-0.6,0.6-1.4,0.9-2.3,0.9c-0.9,0-1.7-0.3-2.3-0.9
				c-0.6-0.6-0.9-1.4-0.9-2.3V49.7c0-0.9,0.3-1.7,0.9-2.3c0.6-0.6,1.4-1,2.3-1c0.9,0,1.7,0.3,2.3,1c0.6,0.6,1,1.4,1,2.3v14.9H238
				V49.7c0-0.9,0.3-1.7,0.9-2.3c0.6-0.6,1.4-1,2.3-1c0.9,0,1.7,0.3,2.3,1c0.6,0.6,1,1.4,1,2.3V85.6z M261.5,85.6
				c0,0.9-0.3,1.7-1,2.3c-0.6,0.6-1.4,0.9-2.3,0.9c-0.9,0-1.7-0.3-2.3-0.9c-0.6-0.6-0.9-1.4-0.9-2.3V49.7c0-0.9,0.3-1.7,0.9-2.3
				c0.6-0.6,1.4-1,2.3-1c0.9,0,1.7,0.3,2.3,1c0.6,0.6,1,1.4,1,2.3V85.6z M299.8,52c-0.6,0.6-1.3,0.9-2.2,0.9h-11.2v32.8
				c0,0.9-0.3,1.7-1,2.3c-0.6,0.6-1.4,0.9-2.3,0.9c-0.9,0-1.7-0.3-2.3-0.9c-0.6-0.6-0.9-1.4-0.9-2.3V52.8h-11.3
				c-0.9,0-1.6-0.3-2.2-0.9c-0.6-0.6-0.9-1.3-0.9-2.2c0-0.9,0.3-1.6,0.9-2.2c0.6-0.6,1.3-0.9,2.2-0.9h29c0.9,0,1.6,0.3,2.2,0.9
				c0.6,0.6,0.9,1.3,0.9,2.2C300.7,50.7,300.4,51.4,299.8,52z M329.3,64.5c0.9,0,1.6,0.3,2.2,0.9c0.6,0.6,0.9,1.3,0.9,2.2
				c0,0.9-0.3,1.6-0.9,2.2c-0.6,0.6-1.3,0.9-2.2,0.9h-18v11.8h20.1c0.9,0,1.6,0.3,2.2,0.9c0.6,0.6,0.9,1.3,0.9,2.2
				c0,0.9-0.3,1.6-0.9,2.2c-0.6,0.6-1.3,0.9-2.2,0.9H308c-0.9,0-1.7-0.3-2.3-0.9c-0.6-0.6-0.9-1.4-0.9-2.3V50c0-0.9,0.3-1.7,0.9-2.3
				c0.6-0.6,1.4-1,2.3-1h23.4c0.9,0,1.6,0.3,2.2,0.9c0.6,0.6,0.9,1.3,0.9,2.2c0,0.9-0.3,1.6-0.9,2.2c-0.6,0.6-1.3,0.9-2.2,0.9h-20.1
				v11.7H329.3z"/>
			<path class="st1" d="M104,50.8L104,50.8c0-0.1-0.1-0.2-0.1-0.2c-0.1-0.2-0.4-0.3-0.6-0.3s-0.5,0.1-0.6,0.3c0,0.1-0.1,0.1-0.1,0.2
				c-2,7.8-8.2,14-16,16.1c0,0,0,0-0.1,0c-0.1,0-0.1,0.1-0.2,0.1c-0.2,0.1-0.3,0.4-0.3,0.6s0.1,0.5,0.3,0.6c0.1,0.1,0.1,0.1,0.2,0.1
				c0,0,0.1,0,0.1,0c7.8,2.1,13.9,8.2,16,16c0,0,0,0,0,0.1c0,0.1,0,0.1,0.1,0.2c0.1,0.2,0.4,0.3,0.6,0.3s0.5-0.1,0.6-0.3
				c0-0.1,0.1-0.1,0.1-0.2c0,0,0-0.1,0-0.1c2.1-7.8,8.2-14,16-16c0,0,0.1,0,0.1,0c0.1,0,0.1,0,0.2-0.1c0.2-0.1,0.3-0.4,0.3-0.6
				s-0.1-0.5-0.3-0.6c0,0-0.1-0.1-0.1-0.1c0,0,0,0,0,0c0,0-0.1,0-0.1,0C112.2,64.8,106.1,58.6,104,50.8z"/>
		</g>
		<g>
			<path class="st2" d="M252.4,120.3c0.4-0.2,0.6-0.2,0.7,0c0.1,0.2,0.1,0.4-0.1,0.7c-0.2,0.4-0.4,0.8-0.7,1.1
				c-0.3,0.3-0.6,0.6-1,0.9c-0.8,0.7-1.4,1.2-1.9,1.7c-0.5,0.4-0.9,0.8-1.3,1.1c-0.3,0.3-0.6,0.5-0.9,0.6c-0.2,0.2-0.4,0.3-0.6,0.4
				c-0.8,0.5-1.5,0.9-2.2,1.3c-0.7,0.4-1.4,0.7-2.1,0.9c-1,0.3-2,0.3-3,0c-1-0.3-1.7-0.9-2.2-1.7c-0.6-1-0.8-2.2-0.7-3.5
				c0.1-1.3,0.4-2.6,1-3.8c0.6-1.2,1.3-2.3,2.3-3.1c0.9-0.9,2-1.3,3.1-1.4c0.4-0.1,0.7,0,1.1,0.3c0.4,0.3,0.6,0.6,0.7,1
				c0.1,0.3,0.1,0.6,0,1c-0.1,0.4-0.2,0.8-0.3,1.2c-0.1,0.4-0.2,0.9-0.4,1.4s-0.2,1.1-0.3,1.6c-0.1,0.2-0.2,0.3-0.3,0.3
				c-0.1,0-0.2-0.1-0.3-0.2c-0.4-0.6-0.6-1.1-0.7-1.6c-0.1-0.5-0.2-1-0.3-1.4c-0.2,0-0.5,0.2-0.8,0.6c-0.3,0.4-0.6,0.8-0.9,1.4
				s-0.5,1.2-0.7,1.8c-0.2,0.6-0.3,1.2-0.3,1.7c0,0.7,0.1,1.1,0.3,1.5s0.4,0.5,0.7,0.6s0.6,0,1,0c0.4-0.1,0.8-0.2,1.2-0.4
				c1.7-0.8,3.4-1.7,5-2.6C249.4,122.6,250.9,121.5,252.4,120.3z"/>
			<path class="st2" d="M257.3,131.2c0.2,0.3,0.4,0.5,0.7,0.5c0.3,0,0.5-0.1,0.8-0.2c1-0.8,1.9-1.8,2.8-2.7c0.9-1,1.7-2,2.5-2.9
				c0.8-1,1.6-1.9,2.4-2.9c0.8-0.9,1.5-1.8,2.2-2.5c0.3-0.3,0.5-0.3,0.6-0.2c0.1,0.1,0.2,0.4,0.1,0.7c-0.5,0.8-0.9,1.5-1.4,2.2
				c-0.5,0.7-0.9,1.4-1.4,2.1c-1,1.4-2.1,3-3.1,4.6c-1.1,1.6-2.2,3-3.5,4.2c-0.8,0.7-1.6,1.1-2.5,1.2c-0.8,0-1.7-0.3-2.4-0.8
				c-0.8-0.5-1.2-1.2-1.3-2c-0.2-2-0.2-4,0.1-6c0.3-2.4,0.8-4.8,1.4-7.3s1.4-5,2.4-7.5c0.9-2.5,2-4.9,3.1-7.3
				c1.1-2.4,2.3-4.5,3.5-6.6c0.6-0.9,1.1-1.7,1.7-2.5c0.6-0.8,1.1-1.5,1.8-2.2c0.2-0.3,0.5-0.5,0.9-0.6c0.3-0.1,0.7-0.1,1.1,0
				c0.7,0.3,1,0.9,0.9,1.8c-0.2,1.9-0.6,3.8-1.2,5.6s-1.3,3.6-2.1,5.3c-0.8,1.7-1.7,3.3-2.7,4.9c-1,1.6-2.1,3.1-3.2,4.5
				c-0.1,0.1-0.2,0.2-0.2,0.3c0,0.1-0.1,0.3-0.2,0.4c-0.5,1.3-1,2.7-1.4,4.3c-0.5,1.6-0.9,3.1-1.2,4.6c-0.3,1.5-0.6,2.9-0.7,4.1
				C257.1,129.5,257.1,130.5,257.3,131.2z M269.3,96.5c-1.4,2.4-2.7,4.8-3.8,7.3s-2.2,5-3.3,7.4c0.3-0.3,0.7-0.8,1.1-1.5
				c0.4-0.7,0.9-1.5,1.4-2.4c0.5-0.9,1-1.9,1.5-2.9c0.5-1,0.9-2.1,1.4-3c0.4-1,0.8-1.9,1.1-2.8C269,97.7,269.2,97,269.3,96.5z"/>
			<path class="st2" d="M282.4,119.7l0.6-0.6h0v0.1c0.1,0.8,0,1.3-0.2,1.7c-0.2,0.4-0.3,0.6-0.3,0.6c-0.3,0.5-0.8,1.1-1.3,1.9
				c-0.6,0.8-1.1,1.6-1.7,2.4c-0.6,0.8-1.2,1.5-1.7,2.2s-1,1.2-1.3,1.4c-0.4,0.5-0.8,0.9-1.3,1.3c-0.2,0.1-0.4,0.2-0.7,0.3
				c-0.3,0.1-0.6,0.2-0.9,0.2c-0.3,0-0.6,0.1-0.9,0s-0.5-0.1-0.7-0.2c-0.6-0.4-1-0.8-1.3-1.3c-0.3-0.5-0.5-1.1-0.5-1.6
				c-0.1-1.8,0.1-3.6,0.5-5.5c0.4-1.9,0.9-3.6,1.4-5.1c0.2-0.5,0.4-0.9,0.7-1.4c0.3-0.3,0.6-0.4,1-0.2c0.4,0.1,0.7,0.4,1.1,0.8
				c0.3,0.4,0.5,0.9,0.7,1.5s0.1,1.2-0.1,1.8c-0.2,0.6-0.3,1.1-0.4,1.6c-0.1,0.5-0.3,1-0.4,1.6c-0.1,0.3-0.2,0.6-0.3,1.1
				c-0.1,0.5-0.3,1-0.5,1.5c-0.2,0.5-0.3,1.1-0.4,1.5c-0.1,0.5-0.2,0.9-0.2,1.1c-0.1,0.5,0.1,0.6,0.4,0.4c0.3-0.2,0.8-0.6,1.3-1.2
				c1.3-1.4,2.6-2.7,3.8-4C280.1,122.3,281.3,121,282.4,119.7z M275.6,113.8c-0.2,0.2-0.4,0.2-0.5,0c-0.4-0.7-0.7-1.3-0.8-2.1
				c-0.1-0.7-0.1-1.4,0.2-2.2c0.1-0.4,0.4-0.8,0.9-1.1c0.4-0.3,0.8-0.4,1.2-0.3c0.2,0.1,0.4,0.2,0.6,0.3s0.4,0.3,0.4,0.5
				c0.2,0.9,0.1,1.7-0.4,2.5C276.8,112.5,276.2,113.2,275.6,113.8z"/>
			<path class="st2" d="M285.6,128.5c-0.1,0.3-0.2,0.4-0.3,0.5c-0.5,0.4-0.9,0.3-1.1-0.3c-0.1-0.3-0.1-0.5-0.1-0.7
				c0-0.2,0-0.5,0-0.7c0-0.7,0-1.4,0-2.2c0.1-0.8,0.3-1.7,0.6-2.7c0.3-1,0.6-1.9,1.1-2.9c0.4-0.9,0.8-1.8,1.3-2.7
				c0.4-0.8,0.9-1.5,1.2-2c0.2-0.3,0.5-0.5,0.8-0.5c0.3,0,0.7,0,1,0.2c0.3,0.2,0.6,0.5,0.8,0.8c0.2,0.4,0.2,0.8,0.1,1.2
				c0,0-0.1,0.1-0.2,0.3c-0.1,0.2-0.2,0.3-0.3,0.5c-0.1,0.2-0.2,0.4-0.3,0.6c-0.1,0.2-0.2,0.3-0.2,0.3c0.4-0.3,0.7-0.6,1.1-0.9
				c0.4-0.3,0.7-0.6,1.1-0.9c0.4-0.3,0.8-0.5,1.2-0.8c0.4-0.2,0.8-0.3,1.3-0.3c0.6,0,1,0.2,1.5,0.5c0.4,0.3,0.8,0.7,1.1,1.1
				c0.3,0.4,0.4,0.9,0.5,1.4c0.1,0.5,0,1-0.1,1.4c-0.3,0.9-0.7,1.7-1.2,2.6c-0.5,0.8-1.1,1.7-1.6,2.5s-1,1.6-1.5,2.5
				c-0.5,0.8-0.8,1.7-1,2.6c-0.2,0.7-0.2,1.1,0,1.3s0.4,0.2,0.7,0.1c0.3-0.1,0.6-0.3,0.9-0.5c0.3-0.2,0.5-0.4,0.7-0.5
				c1.3-1,2.6-2.2,3.8-3.5s2.3-2.5,3.5-3.6c1-1,1.6-1.5,1.8-1.6c0.2-0.1,0.3,0.1,0.1,0.5c-0.2,0.4-0.5,1-0.9,1.6
				c-0.4,0.7-0.8,1.3-1.1,1.8c-0.4,0.7-0.9,1.4-1.6,2.4c-0.7,0.9-1.4,1.8-2.3,2.7c-0.8,0.9-1.7,1.6-2.6,2.2s-1.7,0.9-2.5,0.9
				c-0.6,0-1-0.1-1.5-0.4c-0.4-0.2-0.8-0.5-1.1-0.9s-0.5-0.8-0.7-1.2c-0.1-0.5-0.2-0.9-0.2-1.4c0-1.6,0.3-3.2,1-4.8
				c0.7-1.6,1.4-3,2.1-4.3c0.4-0.7,0.5-1.2,0.3-1.4c-0.2-0.3-0.6-0.2-1.4,0.1c-0.7,0.3-1.3,0.8-1.8,1.6c-0.6,0.8-1.1,1.6-1.5,2.5
				c-0.5,0.9-0.9,1.8-1.3,2.7C286.3,127.2,286,127.9,285.6,128.5z"/>
			<path class="st2" d="M316.5,119.7l0.6-0.6h0v0.1c0.1,0.8,0,1.3-0.2,1.7c-0.2,0.4-0.3,0.6-0.3,0.6c-0.3,0.5-0.8,1.1-1.3,1.9
				c-0.6,0.8-1.1,1.6-1.7,2.4c-0.6,0.8-1.2,1.5-1.7,2.2s-1,1.2-1.3,1.4c-0.4,0.5-0.8,0.9-1.3,1.3c-0.2,0.1-0.4,0.2-0.7,0.3
				c-0.3,0.1-0.6,0.2-0.9,0.2c-0.3,0-0.6,0.1-0.9,0s-0.5-0.1-0.7-0.2c-0.6-0.4-1-0.8-1.3-1.3c-0.3-0.5-0.5-1.1-0.5-1.6
				c-0.1-1.8,0.1-3.6,0.5-5.5c0.4-1.9,0.9-3.6,1.4-5.1c0.2-0.5,0.4-0.9,0.7-1.4c0.3-0.3,0.6-0.4,1-0.2c0.4,0.1,0.7,0.4,1.1,0.8
				c0.3,0.4,0.5,0.9,0.7,1.5s0.1,1.2-0.1,1.8c-0.2,0.6-0.3,1.1-0.4,1.6c-0.1,0.5-0.3,1-0.4,1.6c-0.1,0.3-0.2,0.6-0.3,1.1
				c-0.1,0.5-0.3,1-0.5,1.5c-0.2,0.5-0.3,1.1-0.4,1.5c-0.1,0.5-0.2,0.9-0.2,1.1c-0.1,0.5,0.1,0.6,0.4,0.4c0.3-0.2,0.8-0.6,1.3-1.2
				c1.3-1.4,2.6-2.7,3.8-4C314.1,122.3,315.3,121,316.5,119.7z M309.6,113.8c-0.2,0.2-0.4,0.2-0.5,0c-0.4-0.7-0.7-1.3-0.8-2.1
				c-0.1-0.7-0.1-1.4,0.2-2.2c0.1-0.4,0.4-0.8,0.9-1.1c0.4-0.3,0.8-0.4,1.2-0.3c0.2,0.1,0.4,0.2,0.6,0.3s0.4,0.3,0.4,0.5
				c0.2,0.9,0.1,1.7-0.4,2.5C310.8,112.5,310.3,113.2,309.6,113.8z"/>
			<path class="st2" d="M333.9,120.3c0.4-0.2,0.6-0.2,0.7,0c0.1,0.2,0.1,0.4-0.1,0.7c-0.2,0.4-0.4,0.8-0.7,1.1
				c-0.3,0.3-0.6,0.6-1,0.9c-0.8,0.7-1.4,1.2-1.9,1.7c-0.5,0.4-0.9,0.8-1.3,1.1s-0.6,0.5-0.9,0.6c-0.2,0.2-0.4,0.3-0.6,0.4
				c-0.8,0.5-1.5,0.9-2.2,1.3c-0.7,0.4-1.4,0.7-2.1,0.9c-1,0.3-2,0.3-3,0c-1-0.3-1.7-0.9-2.2-1.7c-0.6-1-0.8-2.2-0.7-3.5
				c0.1-1.3,0.4-2.6,1-3.8c0.6-1.2,1.3-2.3,2.3-3.1c0.9-0.9,2-1.3,3.1-1.4c0.4-0.1,0.7,0,1.1,0.3c0.4,0.3,0.6,0.6,0.7,1
				c0.1,0.3,0.1,0.6,0,1s-0.2,0.8-0.3,1.2c-0.1,0.4-0.2,0.9-0.4,1.4c-0.1,0.5-0.2,1.1-0.3,1.6c-0.1,0.2-0.2,0.3-0.3,0.3
				c-0.1,0-0.2-0.1-0.3-0.2c-0.4-0.6-0.6-1.1-0.7-1.6c-0.1-0.5-0.2-1-0.3-1.4c-0.2,0-0.4,0.2-0.8,0.6c-0.3,0.4-0.6,0.8-0.9,1.4
				s-0.5,1.2-0.7,1.8c-0.2,0.6-0.3,1.2-0.3,1.7c0,0.7,0.1,1.1,0.3,1.5c0.2,0.3,0.4,0.5,0.7,0.6s0.6,0,1,0c0.4-0.1,0.8-0.2,1.2-0.4
				c1.7-0.8,3.4-1.7,5-2.6C330.9,122.6,332.4,121.5,333.9,120.3z"/>
		</g>
	</g>
</g>
</svg>
