<?xml version="1.0" encoding="UTF-8"?><svg id="Warstwa_2" xmlns="http://www.w3.org/2000/svg" viewBox="0 0 379.79 152.52"><defs><style>.cls-1{fill:#fff;}.cls-2{fill:#5fc4e1;}.cls-3{fill:none;}.cls-4{fill:#1d1d1b;}</style></defs><g id="Warstwa_1-2"><path class="cls-2" d="m351.93,36.48v62.35c0,4.45-3.39,8.12-7.74,8.57H36.48c-4.75,0-8.61-3.85-8.61-8.61v-62.31c0-4.76,3.86-8.61,8.61-8.61h306.83c4.76,0,8.62,3.85,8.62,8.61Z"/><path class="cls-1" d="m103.28,45.09c0,12.45-10.09,22.55-22.54,22.55,0-12.45,10.09-22.55,22.54-22.55Z"/><path class="cls-1" d="m125.83,67.64c-12.45,0-22.55-10.1-22.55-22.55,12.46,0,22.55,10.1,22.55,22.55Z"/><path class="cls-1" d="m103.28,90.18c-12.43,0-22.51-10.06-22.54-22.49,12.43,0,22.51,10.06,22.54,22.49Z"/><path class="cls-1" d="m125.83,67.69c-.03,12.43-10.11,22.49-22.55,22.49.03-12.43,10.12-22.49,22.55-22.49Z"/><path class="cls-1" d="m71.48,67.97c-1.51-.85-3.18-1.55-4.96-2.06-1.77-.51-3.54-.97-5.27-1.38-1.72-.4-3.33-.86-4.78-1.35-1.39-.47-2.51-1.12-3.34-1.91-.78-.75-1.16-1.73-1.16-3.02,0-1.97.88-3.42,2.68-4.45,1.88-1.07,4.28-1.61,7.11-1.61,1.74,0,3.4.14,4.93.43,1.54.28,2.97.66,4.31,1.13.13.03.27.07.4.13.22.08.44.12.67.12.92,0,1.66-.34,2.18-1.01.49-.63.74-1.31.74-2.02,0-.85-.22-1.51-.65-1.97-.39-.41-.85-.72-1.36-.9-1.58-.59-3.38-1.07-5.35-1.43-1.97-.35-4.14-.53-6.45-.53-3.33,0-6.2.57-8.53,1.69-2.34,1.13-4.14,2.66-5.34,4.55-1.2,1.89-1.81,4.01-1.81,6.28s.48,3.99,1.44,5.42c.94,1.41,2.2,2.58,3.75,3.47,1.51.87,3.18,1.59,4.96,2.12,1.75.53,3.54,1.01,5.3,1.44,1.74.42,3.36.89,4.81,1.38,1.4.48,2.53,1.08,3.37,1.79.76.65,1.13,1.48,1.13,2.56,0,1.51-.4,2.73-1.19,3.6-.81.9-1.94,1.55-3.36,1.92-1.48.39-3.18.59-5.07.59-2.42,0-4.6-.25-6.46-.74-1.88-.49-3.49-1.03-4.78-1.6-.42-.19-.88-.28-1.34-.28-.91,0-1.65.31-2.19.93-.52.59-.79,1.3-.79,2.1,0,.63.21,1.23.61,1.77.39.53.85.91,1.37,1.15,1.73.75,3.79,1.42,6.12,1.98,2.35.57,5.03.86,7.97.86,3.09,0,5.83-.51,8.13-1.5,2.32-1.01,4.15-2.44,5.43-4.25,1.29-1.82,1.94-3.9,1.94-6.19s-.48-4.24-1.43-5.71c-.94-1.45-2.21-2.63-3.76-3.51Z"/><path class="cls-1" d="m203.35,46.42c-.76,0-1.43.24-2,.72-.55.46-.95,1.06-1.17,1.79l-9.23,30.34-9.29-30.22c-.23-.78-.69-1.43-1.35-1.91-1.33-.96-3.15-.96-4.47,0-.67.48-1.12,1.13-1.35,1.9l-9.29,30.22-9.23-30.31c-.19-.74-.56-1.35-1.13-1.82-.57-.48-1.27-.72-2.06-.72-.89,0-1.65.3-2.27.89-.63.61-.93,1.38-.88,2.25,0,.29.06.66.2,1.17l11.42,35.09c.35,1.01.89,1.77,1.62,2.27,1.48,1.02,3.42,1,4.86-.14.73-.58,1.24-1.3,1.51-2.15l8.83-27.96,8.83,27.96c.27.85.77,1.57,1.51,2.15.74.59,1.58.88,2.49.88.85,0,1.65-.25,2.37-.74.72-.5,1.27-1.26,1.62-2.28l11.43-35.1c.13-.48.2-.86.19-1.08.1-.92-.18-1.7-.82-2.32-.62-.59-1.4-.89-2.33-.89Z"/><path class="cls-1" d="m241.17,46.42c-.9,0-1.67.32-2.28.97-.61.63-.92,1.41-.92,2.3v14.92h-20.92v-14.92c0-.9-.32-1.67-.96-2.31-.64-.64-1.41-.96-2.31-.96s-1.67.32-2.28.97c-.61.63-.92,1.41-.92,2.3v35.95c0,.9.31,1.66.93,2.28.62.62,1.38.93,2.28.93s1.66-.31,2.3-.92c.64-.62.97-1.38.97-2.28v-14.92h20.92v14.92c0,.9.31,1.66.93,2.28.62.62,1.38.93,2.28.93s1.66-.31,2.3-.92c.64-.62.97-1.38.97-2.28v-35.95c0-.9-.32-1.67-.96-2.3-.63-.64-1.41-.96-2.31-.96Z"/><path class="cls-1" d="m258.28,46.42c-.9,0-1.67.32-2.28.97-.61.63-.92,1.41-.92,2.3v35.95c0,.9.31,1.66.93,2.28.62.62,1.38.93,2.28.93s1.66-.31,2.3-.92c.64-.62.97-1.38.97-2.28v-35.95c0-.9-.32-1.67-.96-2.3-.63-.64-1.41-.96-2.31-.96Z"/><path class="cls-1" d="m297.66,46.72h-29.02c-.86,0-1.59.3-2.17.91-.57.6-.86,1.33-.86,2.18s.29,1.58.87,2.16,1.3.87,2.16.87h11.3v32.8c0,.9.31,1.66.93,2.28.62.62,1.38.93,2.28.93s1.66-.31,2.3-.92c.64-.62.97-1.38.97-2.28v-32.8h11.25c.85,0,1.58-.29,2.18-.86.6-.58.91-1.31.91-2.17s-.3-1.59-.9-2.19c-.6-.6-1.33-.9-2.19-.9Z"/><path class="cls-1" d="m331.38,82.43h-20.1v-11.77h18c.85,0,1.59-.29,2.18-.86.6-.58.91-1.31.91-2.17s-.3-1.59-.9-2.19c-.6-.6-1.33-.9-2.19-.9h-18v-11.71h20.1c.85,0,1.58-.29,2.18-.86.6-.58.91-1.31.91-2.17s-.3-1.59-.9-2.19c-.6-.6-1.33-.9-2.19-.9h-23.37c-.9,0-1.67.32-2.28.97-.61.63-.92,1.41-.92,2.3v35.37c0,.9.31,1.66.93,2.28.62.62,1.38.93,2.28.93h23.37c.85,0,1.58-.29,2.18-.86.6-.58.91-1.31.91-2.17s-.3-1.59-.9-2.19c-.6-.6-1.33-.9-2.19-.9Z"/><path class="cls-4" d="m252.36,120.33c.36-.16.58-.15.66.02.08.18.06.4-.07.66-.2.39-.44.75-.74,1.08-.29.33-.62.64-.98.93-.75.69-1.38,1.25-1.89,1.69-.51.44-.93.79-1.27,1.05-.34.26-.63.47-.86.64-.23.16-.44.31-.64.44-.75.46-1.49.9-2.23,1.32-.73.42-1.43.74-2.08.93-1.01.29-2,.3-2.96.02-.96-.28-1.69-.86-2.18-1.74-.55-1.01-.78-2.18-.69-3.5.1-1.32.43-2.6,1-3.82.57-1.22,1.33-2.27,2.28-3.14.95-.87,1.99-1.33,3.14-1.4.36-.07.73.04,1.1.32.38.28.61.6.71.96.1.29.11.62.05.98-.07.36-.16.76-.27,1.2-.12.44-.24.92-.37,1.45s-.25,1.06-.34,1.62c-.07.2-.16.3-.27.32-.12.02-.22-.06-.32-.22-.36-.56-.58-1.09-.66-1.59-.08-.51-.17-.99-.27-1.45-.2,0-.45.19-.76.56-.31.38-.61.84-.91,1.4s-.54,1.15-.74,1.79c-.2.64-.29,1.2-.29,1.69,0,.65.1,1.14.29,1.47s.44.52.74.59.64.05,1.03-.05c.39-.1.78-.25,1.18-.44,1.73-.82,3.4-1.69,5-2.62,1.6-.93,3.14-1.99,4.61-3.16Z"/><path class="cls-4" d="m257.26,131.21c.16.33.38.5.66.51.28.02.55-.06.81-.22.98-.85,1.91-1.76,2.79-2.74.88-.98,1.72-1.96,2.52-2.94.8-.98,1.58-1.94,2.35-2.87.77-.93,1.51-1.77,2.23-2.52.26-.26.47-.32.61-.17s.17.37.07.66c-.46.75-.92,1.48-1.37,2.18-.46.7-.93,1.41-1.42,2.13-1.01,1.44-2.05,2.97-3.11,4.61-1.06,1.63-2.23,3.02-3.5,4.17-.78.72-1.63,1.13-2.55,1.23-.85-.03-1.65-.3-2.4-.81-.75-.51-1.19-1.18-1.32-2.03-.2-1.99-.16-4,.1-6.03.29-2.35.77-4.79,1.42-7.3s1.45-5.01,2.38-7.5c.93-2.48,1.95-4.9,3.06-7.25,1.11-2.35,2.27-4.54,3.48-6.57.56-.88,1.11-1.72,1.67-2.52.55-.8,1.14-1.54,1.76-2.23.23-.29.51-.51.86-.64.34-.13.69-.11,1.05.05.72.33,1.03.93.93,1.81-.23,1.93-.63,3.81-1.2,5.64s-1.27,3.59-2.08,5.29c-.82,1.7-1.73,3.33-2.74,4.9-1.01,1.57-2.09,3.05-3.23,4.46-.1.1-.17.21-.22.34-.05.13-.11.26-.17.39-.49,1.31-.97,2.74-1.45,4.31-.47,1.57-.88,3.1-1.23,4.58-.34,1.49-.59,2.87-.73,4.14-.15,1.27-.16,2.25-.02,2.94Zm12.05-34.69c-1.41,2.35-2.66,4.77-3.77,7.25s-2.22,4.97-3.33,7.45c.29-.29.66-.79,1.1-1.49.44-.7.91-1.5,1.4-2.4.49-.9.98-1.87,1.47-2.92.49-1.04.95-2.06,1.37-3.04.42-.98.8-1.9,1.13-2.77.33-.87.54-1.56.64-2.08Z"/><path class="cls-4" d="m282.44,119.7l.59-.59h.05v.1c.07.75,0,1.32-.2,1.69-.2.38-.29.58-.29.61-.33.49-.77,1.12-1.32,1.89-.56.77-1.14,1.55-1.74,2.35-.61.8-1.18,1.54-1.74,2.21s-1,1.15-1.32,1.45c-.39.46-.82.88-1.27,1.27-.16.13-.38.25-.66.34-.28.1-.56.17-.86.22-.29.05-.58.06-.86.02s-.5-.11-.66-.24c-.56-.36-.99-.79-1.3-1.3-.31-.51-.46-1.05-.46-1.64-.1-1.8.06-3.63.46-5.51.41-1.88.89-3.58,1.45-5.12.16-.46.39-.93.69-1.42.29-.29.64-.38,1.03-.25.39.13.74.4,1.05.81.31.41.54.91.69,1.49s.12,1.18-.07,1.76c-.16.56-.31,1.09-.44,1.59-.13.51-.28,1.04-.44,1.59-.07.26-.17.64-.32,1.13-.15.49-.3,1-.46,1.54-.16.54-.31,1.05-.44,1.54-.13.49-.21.87-.25,1.13-.07.49.07.62.39.39.33-.23.77-.62,1.32-1.18,1.34-1.37,2.61-2.7,3.82-3.99,1.21-1.29,2.4-2.59,3.58-3.9Zm-6.86-5.88c-.23.23-.39.23-.49,0-.42-.65-.7-1.34-.83-2.06-.13-.72-.07-1.44.2-2.16.13-.42.42-.78.86-1.05.44-.28.84-.37,1.2-.27.2.07.41.17.64.32s.38.32.44.51c.23.88.11,1.73-.37,2.55-.47.82-1.02,1.54-1.64,2.16Z"/><path class="cls-4" d="m285.63,128.47c-.13.26-.23.42-.29.49-.52.36-.88.26-1.08-.29-.07-.26-.11-.51-.15-.74-.03-.23-.05-.47-.05-.73-.03-.72-.03-1.44,0-2.16.1-.82.29-1.71.59-2.67.29-.96.64-1.92,1.05-2.87.41-.95.83-1.84,1.27-2.67.44-.83.86-1.51,1.25-2.03.2-.29.46-.46.81-.49.34-.03.68.05,1,.24.33.2.59.47.78.83.2.36.25.77.15,1.23-.03.03-.1.13-.2.29-.1.16-.2.34-.29.54-.1.2-.2.38-.29.56-.1.18-.16.29-.2.32.36-.26.72-.55,1.08-.88.36-.33.73-.64,1.1-.93.38-.29.76-.55,1.15-.76.39-.21.82-.32,1.27-.32.55,0,1.04.16,1.47.46.42.31.78.69,1.05,1.13.28.44.45.92.51,1.42.06.51.03.99-.1,1.45-.29.88-.7,1.74-1.22,2.57-.52.83-1.05,1.66-1.59,2.47s-1.04,1.64-1.49,2.47c-.46.83-.78,1.69-.98,2.57-.2.69-.2,1.11-.02,1.27s.42.2.71.1c.29-.1.6-.26.91-.49.31-.23.53-.39.66-.49,1.34-1.04,2.6-2.2,3.77-3.45s2.33-2.46,3.48-3.6c.98-.98,1.59-1.51,1.84-1.59.25-.08.28.08.1.49-.18.41-.47.96-.88,1.64-.41.69-.78,1.29-1.1,1.81-.39.65-.93,1.45-1.62,2.38-.69.93-1.45,1.83-2.28,2.7-.83.86-1.69,1.6-2.57,2.2s-1.7.91-2.45.91c-.56,0-1.05-.12-1.47-.37-.42-.24-.78-.55-1.08-.91s-.51-.77-.66-1.22c-.15-.46-.22-.92-.22-1.37,0-1.63.33-3.23,1-4.8.67-1.57,1.38-3.01,2.13-4.31.36-.69.46-1.16.29-1.42-.16-.26-.64-.21-1.42.15-.65.29-1.26.83-1.81,1.59-.56.77-1.07,1.6-1.54,2.5-.47.9-.91,1.79-1.3,2.67-.39.88-.75,1.58-1.08,2.11Z"/><path class="cls-4" d="m316.5,119.7l.59-.59h.05v.1c.07.75,0,1.32-.2,1.69-.2.38-.29.58-.29.61-.33.49-.77,1.12-1.32,1.89-.56.77-1.14,1.55-1.74,2.35-.61.8-1.18,1.54-1.74,2.21s-1,1.15-1.32,1.45c-.39.46-.82.88-1.27,1.27-.16.13-.38.25-.66.34-.28.1-.56.17-.86.22-.29.05-.58.06-.86.02s-.5-.11-.66-.24c-.56-.36-.99-.79-1.3-1.3-.31-.51-.46-1.05-.46-1.64-.1-1.8.06-3.63.46-5.51.41-1.88.89-3.58,1.45-5.12.16-.46.39-.93.69-1.42.29-.29.64-.38,1.03-.25.39.13.74.4,1.05.81.31.41.54.91.69,1.49s.12,1.18-.07,1.76c-.16.56-.31,1.09-.44,1.59-.13.51-.28,1.04-.44,1.59-.07.26-.17.64-.32,1.13-.15.49-.3,1-.46,1.54-.16.54-.31,1.05-.44,1.54-.13.49-.21.87-.25,1.13-.07.49.07.62.39.39.33-.23.77-.62,1.32-1.18,1.34-1.37,2.61-2.7,3.82-3.99,1.21-1.29,2.4-2.59,3.58-3.9Zm-6.86-5.88c-.23.23-.39.23-.49,0-.42-.65-.7-1.34-.83-2.06-.13-.72-.07-1.44.2-2.16.13-.42.42-.78.86-1.05.44-.28.84-.37,1.2-.27.2.07.41.17.64.32s.38.32.44.51c.23.88.11,1.73-.37,2.55-.47.82-1.02,1.54-1.64,2.16Z"/><path class="cls-4" d="m333.89,120.33c.36-.16.58-.15.66.02.08.18.06.4-.07.66-.2.39-.44.75-.74,1.08-.29.33-.62.64-.98.93-.75.69-1.38,1.25-1.89,1.69-.51.44-.93.79-1.27,1.05s-.63.47-.86.64c-.23.16-.44.31-.64.44-.75.46-1.5.9-2.23,1.32-.74.42-1.43.74-2.08.93-1.01.29-2,.3-2.96.02-.96-.28-1.69-.86-2.18-1.74-.56-1.01-.78-2.18-.69-3.5.1-1.32.43-2.6,1-3.82.57-1.22,1.33-2.27,2.28-3.14.95-.87,1.99-1.33,3.14-1.4.36-.07.73.04,1.1.32.38.28.61.6.71.96.1.29.11.62.05.98s-.16.76-.27,1.2c-.12.44-.24.92-.37,1.45-.13.52-.25,1.06-.34,1.62-.07.2-.16.3-.27.32-.12.02-.22-.06-.32-.22-.36-.56-.58-1.09-.66-1.59-.08-.51-.17-.99-.27-1.45-.2,0-.45.19-.76.56-.31.38-.61.84-.91,1.4s-.54,1.15-.74,1.79c-.2.64-.29,1.2-.29,1.69,0,.65.1,1.14.29,1.47.2.33.44.52.74.59s.64.05,1.03-.05c.39-.1.78-.25,1.18-.44,1.73-.82,3.4-1.69,5-2.62,1.6-.93,3.14-1.99,4.61-3.16Z"/><rect class="cls-3" width="379.79" height="152.52"/></g></svg>